<?xml version="1.0" encoding="utf-8"?>
<!-- Generator: Adobe Illustrator 23.0.1, SVG Export Plug-In . SVG Version: 6.00 Build 0)  -->
<svg version="1.1" id="Capa_1" xmlns="http://www.w3.org/2000/svg" xmlns:xlink="http://www.w3.org/1999/xlink" x="0px" y="0px"
	 viewBox="0 0 486.5 486.5" style="enable-background:new 0 0 486.5 486.5;" xml:space="preserve">
<style type="text/css">
	.st0{fill:#FFFAFA;}
</style>
<g>
	<g>
		<path class="st0" d="M453.3,39.7L436.8,25c-18-16-41.2-24.8-65.4-24.8c-28.2,0-55.1,12.1-73.8,33.1l-47.4,53.5
			c-6.1,6.9-9.2,15.7-8.6,24.9c0.6,9.2,4.6,17.6,11.5,23.7l4.4,3.9c6.3,5.6,14.4,8.7,22.8,8.7l2.1-0.1c9.2-0.6,17.6-4.6,23.7-11.5
			L353.6,83c8.3-9.4,24.2-10.4,33.6-2l16.6,14.7c4.7,4.2,7.6,10,8,16.4c0.4,6.4-1.7,12.5-5.9,17.2L302,246.2
			c-7,7.9-19.4,10.2-28.7,5.3c-14.6-7.5-33.6-3.9-44.4,8.3l-0.8,0.9c-7.6,8.5-10.7,19.8-8.7,31.1c2.1,11.2,9,20.8,19.2,26.1
			c14,7.3,29.8,11.3,45.6,11.3h0c28.2,0,55.1-12.2,73.8-33.3l103.7-117C497.7,138.2,494,75.7,453.3,39.7z"/>
		<path class="st0" d="M228.9,347.5c-13.7-12.1-36.4-10.7-48.6,2.9l-47.4,53.5c-8.3,9.4-24.2,10.4-33.6,2l-16.6-14.7
			c-4.7-4.2-7.6-10-8-16.4c-0.4-6.3,1.7-12.5,5.9-17.2l103.7-117c6.9-7.8,19-10.1,28.3-5.6c15.1,7.4,34.4,3.8,46.1-9.4
			c7.4-8.4,10.6-19.5,8.6-30.5c-2-11-8.7-20.4-18.6-25.7c-14.2-7.6-30.3-11.6-46.5-11.6c-28.2,0-55.1,12.1-73.8,33.2L24.8,308
			c-36.1,40.7-32.3,103.1,8.4,139.1l16.6,14.5c18,16,41.2,24.6,65.3,24.6c0,0,0,0,0,0c28.2,0,55.1-11.9,73.8-33l47.4-53.4
			c6.1-6.9,9.2-15.7,8.6-24.8c-0.5-9.1-4.7-17.7-11.5-23.7L228.9,347.5z"/>
	</g>
</g>
</svg>
